<?xml version="1.0" standalone="no"?>
<!DOCTYPE svg PUBLIC "-//W3C//DTD SVG 20010904//EN"
 "http://www.w3.org/TR/2001/REC-SVG-20010904/DTD/svg10.dtd">
<svg version="1.0" xmlns="http://www.w3.org/2000/svg"
 width="2500.000000pt" height="300.000000pt" viewBox="0 0 2500.000000 300.000000"
 preserveAspectRatio="xMidYMid meet">
<metadata>
Created by potrace 1.16, written by Peter Selinger 2001-2019
</metadata>
<g transform="translate(0.000000,300.000000) scale(0.100000,-0.100000)"
fill="#000000" stroke="none">
<path d="M15017 2600 c-137 -35 -214 -139 -188 -254 23 -102 84 -142 294 -195
134 -34 179 -58 197 -101 15 -37 7 -96 -17 -122 -51 -57 -164 -81 -255 -54
-67 19 -120 73 -139 138 -7 24 -13 44 -14 46 -1 1 -25 -3 -53 -9 -48 -12 -51
-14 -46 -38 23 -97 79 -167 166 -207 56 -25 75 -28 163 -28 113 -1 172 19 234
77 88 84 95 236 14 309 -33 30 -126 67 -246 97 -174 45 -197 61 -197 138 0 61
56 106 146 118 100 14 181 -30 211 -114 l16 -47 51 11 c46 10 51 14 48 36 -10
76 -90 165 -170 189 -51 16 -169 21 -215 10z"/>
<path d="M8900 2190 l0 -410 50 0 50 0 0 347 c0 199 4 343 9 338 5 -6 59 -162
121 -347 l112 -338 48 0 48 0 39 113 c22 61 76 215 119 342 l79 229 3 -342 2
-342 50 0 50 0 0 410 0 410 -73 0 -73 0 -119 -347 -119 -346 -115 346 -116
347 -82 0 -83 0 0 -410z"/>
<path d="M10641 2223 c-79 -208 -150 -393 -158 -411 l-14 -33 58 3 58 3 44
123 44 122 175 -2 175 -3 46 -122 46 -123 58 0 c31 0 57 3 57 8 0 4 -74 187
-163 407 l-164 400 -59 3 -59 3 -144 -378z m302 10 l45 -113 -139 0 c-76 0
-139 2 -139 5 0 2 24 71 54 152 30 81 59 168 66 193 l13 45 28 -85 c15 -47 48
-136 72 -197z"/>
<path d="M12020 2190 l0 -410 55 0 55 0 0 175 0 175 75 0 c134 0 161 -23 261
-222 l64 -128 61 0 60 0 -78 151 c-43 83 -93 166 -110 184 -18 19 -33 36 -33
39 0 2 13 7 29 11 38 8 104 66 125 109 22 47 21 150 -3 202 -44 97 -127 124
-383 124 l-178 0 0 -410z m409 291 c47 -25 65 -64 59 -131 -9 -95 -59 -120
-242 -120 l-116 0 0 135 0 135 130 0 c110 0 137 -3 169 -19z"/>
<path d="M13450 2190 l0 -410 271 0 270 0 -3 48 -3 47 -212 3 -213 2 0 135 0
135 185 0 185 0 0 50 0 50 -185 0 -185 0 0 125 0 125 203 2 202 3 3 48 3 47
-260 0 -261 0 0 -410z"/>
<path d="M16351 2223 c-79 -208 -150 -393 -158 -411 l-14 -33 58 3 58 3 44
123 44 122 175 -2 175 -3 46 -122 46 -123 58 0 c31 0 57 3 57 8 0 4 -74 187
-163 407 l-164 400 -59 3 -59 3 -144 -378z m302 10 l45 -113 -139 0 c-76 0
-139 2 -139 5 0 2 24 71 54 152 30 81 59 168 66 193 l13 45 28 -85 c15 -47 48
-136 72 -197z"/>
<path d="M11460 1269 c-91 -27 -141 -104 -141 -216 0 -84 21 -142 67 -183 42
-37 68 -44 144 -38 44 3 66 10 83 26 30 28 37 28 37 -3 0 -20 5 -25 25 -25
l26 0 -3 118 -3 117 -87 3 -88 3 0 -26 c0 -24 2 -25 60 -25 58 0 60 -1 60 -25
0 -79 -63 -133 -143 -122 -75 10 -121 77 -121 177 0 113 52 180 139 180 52 0
85 -18 110 -58 15 -24 26 -31 45 -29 29 2 29 26 -1 68 -36 51 -138 79 -209 58z"/>
<path d="M12730 1271 c-116 -37 -167 -129 -149 -269 14 -107 87 -172 194 -172
66 0 110 17 147 56 92 98 70 302 -38 362 -46 25 -116 35 -154 23z m121 -64
c53 -35 71 -79 67 -168 -3 -65 -7 -81 -31 -112 -53 -69 -155 -73 -210 -7 -52
61 -55 200 -7 258 45 55 124 68 181 29z"/>
<path d="M12000 1050 l0 -220 30 0 30 0 0 101 0 102 70 -5 c83 -6 110 -24 110
-73 0 -18 3 -53 6 -79 6 -40 10 -46 30 -46 23 0 24 3 24 81 0 76 -2 82 -30
111 -34 34 -36 38 -15 38 19 0 55 57 55 88 0 12 -6 37 -14 56 -21 51 -65 66
-190 66 l-106 0 0 -220z m230 150 c27 -27 26 -81 -1 -106 -15 -14 -40 -20 -95
-22 l-74 -4 0 76 0 76 75 0 c62 0 79 -4 95 -20z"/>
<path d="M13260 1103 c0 -188 7 -213 72 -253 43 -26 139 -27 188 -2 64 32 75
65 79 255 l3 167 -30 0 -31 0 -3 -169 c-3 -163 -4 -170 -27 -195 -46 -49 -141
-43 -178 12 -15 23 -19 52 -21 190 l-4 162 -24 0 -24 0 0 -167z"/>
<path d="M13910 1050 l0 -220 30 0 30 0 0 89 0 88 78 5 c93 6 138 26 158 73
19 47 18 84 -6 123 -29 48 -72 62 -190 62 l-100 0 0 -220z m227 148 c33 -31
32 -90 -3 -117 -21 -17 -41 -21 -95 -21 l-69 0 0 80 0 80 72 0 c60 0 76 -4 95
-22z"/>
</g>
</svg>
