<svg width="13" height="13" viewBox="0 0 13 13" fill="none" xmlns="http://www.w3.org/2000/svg">
<circle cx="6.5" cy="6.5" r="6.5" fill="white"/>
<path d="M5.385 8V5.445L4.33 7.38H4.02L2.96 5.445V8H2.4V4.45H3L4.175 6.62L5.35 4.45H5.95V8H5.385ZM9.73559 7.56C9.43559 7.87 9.09059 8.025 8.70059 8.025C8.46392 8.025 8.24392 7.97667 8.04059 7.88C7.83725 7.78 7.66059 7.64667 7.51059 7.48C7.36059 7.31333 7.24225 7.12 7.15559 6.9C7.07225 6.68 7.03059 6.45 7.03059 6.21C7.03059 5.97 7.07225 5.74167 7.15559 5.525C7.24225 5.30833 7.36059 5.11833 7.51059 4.955C7.66059 4.79167 7.83892 4.66333 8.04559 4.57C8.25225 4.47333 8.47725 4.425 8.72059 4.425C9.06059 4.425 9.34559 4.49667 9.57559 4.64C9.80559 4.78 9.97892 4.96667 10.0956 5.2L9.66559 5.51C9.56892 5.31667 9.43559 5.17167 9.26559 5.075C9.09559 4.97833 8.90892 4.93 8.70559 4.93C8.53892 4.93 8.38725 4.96667 8.25059 5.04C8.11392 5.11 7.99725 5.205 7.90059 5.325C7.80392 5.44167 7.72892 5.57833 7.67559 5.735C7.62559 5.89167 7.60059 6.055 7.60059 6.225C7.60059 6.405 7.62892 6.57333 7.68559 6.73C7.74559 6.88667 7.82559 7.02333 7.92559 7.14C8.02892 7.25667 8.15059 7.35 8.29059 7.42C8.43059 7.48667 8.58225 7.52 8.74559 7.52C8.92559 7.52 9.09725 7.47833 9.26059 7.395C9.42725 7.31167 9.58559 7.18 9.73559 7V6.62H8.99059V6.205H10.2056V8H9.73559V7.56Z" fill="#212020"/>
</svg>
