<svg width="129" height="49" viewBox="0 0 129 49" fill="none" xmlns="http://www.w3.org/2000/svg">
<path d="M18.956 26V11.832L13.104 22.584H11.256L5.376 11.832V26H2.24V6.12H5.6L12.18 18.272L18.76 6.12H22.12V26H18.956ZM35.1433 6.12H38.1113L45.8393 26H42.5353L40.4353 20.596H32.7633L30.6913 26H27.3593L35.1433 6.12ZM39.8193 18.272L36.6273 9.564L33.3233 18.272H39.8193ZM51.0978 26V6.12H59.7498C60.6458 6.12 61.4671 6.30667 62.2138 6.68C62.9605 7.05333 63.6045 7.548 64.1458 8.164C64.7058 8.78 65.1351 9.47067 65.4338 10.236C65.7511 11.0013 65.9098 11.7853 65.9098 12.588C65.9098 13.4653 65.7511 14.3053 65.4338 15.108C65.1165 15.9107 64.6591 16.6013 64.0618 17.18C63.4831 17.7587 62.8018 18.1787 62.0178 18.44L66.6938 26H63.1658L58.8538 19.084H54.2338V26H51.0978ZM54.2338 16.312H59.7218C60.3005 16.312 60.8138 16.144 61.2618 15.808C61.7098 15.472 62.0645 15.024 62.3258 14.464C62.5871 13.8853 62.7178 13.26 62.7178 12.588C62.7178 11.8973 62.5685 11.2813 62.2698 10.74C61.9711 10.18 61.5791 9.732 61.0938 9.396C60.6271 9.06 60.1138 8.892 59.5538 8.892H54.2338V16.312ZM86.0455 23.228V26H72.4095V6.12H85.7935V8.892H75.5455V14.548H84.4215V17.152H75.5455V23.228H86.0455ZM103.841 10.796C103.654 10.5907 103.383 10.376 103.029 10.152C102.674 9.90933 102.254 9.68533 101.769 9.48C101.283 9.27467 100.761 9.10667 100.201 8.976C99.6406 8.84533 99.062 8.78 98.4646 8.78C97.158 8.78 96.1873 9.02267 95.5526 9.508C94.918 9.99333 94.6006 10.6653 94.6006 11.524C94.6006 12.1587 94.778 12.6627 95.1326 13.036C95.4873 13.3907 96.0286 13.6893 96.7566 13.932C97.4846 14.1747 98.3993 14.436 99.5006 14.716C100.845 15.0333 102.011 15.416 103.001 15.864C103.99 16.2933 104.746 16.872 105.269 17.6C105.791 18.328 106.053 19.2893 106.053 20.484C106.053 21.492 105.866 22.36 105.493 23.088C105.119 23.816 104.597 24.4133 103.925 24.88C103.253 25.328 102.478 25.664 101.601 25.888C100.723 26.0933 99.7806 26.196 98.7726 26.196C97.7833 26.196 96.794 26.0933 95.8046 25.888C94.834 25.6827 93.9006 25.384 93.0046 24.992C92.1273 24.5813 91.3153 24.0867 90.5686 23.508L91.9966 20.82C92.2393 21.0627 92.5846 21.3333 93.0326 21.632C93.4993 21.912 94.0313 22.1827 94.6286 22.444C95.2446 22.7053 95.9073 22.9293 96.6166 23.116C97.3446 23.284 98.082 23.368 98.8286 23.368C100.079 23.368 101.031 23.1533 101.685 22.724C102.357 22.276 102.693 21.6413 102.693 20.82C102.693 20.148 102.478 19.616 102.049 19.224C101.619 18.8133 100.994 18.468 100.173 18.188C99.3513 17.908 98.3713 17.628 97.2326 17.348C95.926 16.9933 94.834 16.6107 93.9566 16.2C93.0793 15.7707 92.4166 15.2293 91.9686 14.576C91.5393 13.904 91.3246 13.0547 91.3246 12.028C91.3246 10.7213 91.642 9.62 92.2766 8.724C92.9113 7.80933 93.77 7.128 94.8526 6.68C95.954 6.21333 97.186 5.98 98.5486 5.98C99.4446 5.98 100.294 6.08267 101.097 6.288C101.899 6.47467 102.646 6.736 103.337 7.072C104.046 7.408 104.69 7.79067 105.269 8.22L103.841 10.796ZM117.328 6.12H120.296L128.024 26H124.72L122.62 20.596H114.948L112.876 26H109.544L117.328 6.12ZM122.004 18.272L118.812 9.564L115.508 18.272H122.004Z" fill="#212020"/>
<path d="M42.856 43.224C41.7573 44.4613 40.4827 45.08 39.032 45.08C38.264 45.08 37.5493 44.9147 36.888 44.584C36.2373 44.2533 35.6773 43.816 35.208 43.272C34.7387 42.728 34.3707 42.1093 34.104 41.416C33.8373 40.7227 33.704 40.0187 33.704 39.304C33.704 38.5573 33.832 37.8373 34.088 37.144C34.3547 36.4507 34.7173 35.8373 35.176 35.304C35.6453 34.7707 36.2 34.3493 36.84 34.04C37.48 33.72 38.1787 33.56 38.936 33.56C39.5013 33.56 40.008 33.624 40.456 33.752C40.9147 33.8693 41.32 34.04 41.672 34.264C42.0347 34.4773 42.344 34.7387 42.6 35.048C42.8667 35.3467 43.0907 35.6773 43.272 36.04L42.6 36.44C42.216 35.6933 41.704 35.1547 41.064 34.824C40.4347 34.4827 39.72 34.312 38.92 34.312C38.248 34.312 37.64 34.456 37.096 34.744C36.552 35.032 36.088 35.4107 35.704 35.88C35.32 36.3493 35.0267 36.8827 34.824 37.48C34.6213 38.0773 34.52 38.6907 34.52 39.32C34.52 39.992 34.6373 40.632 34.872 41.24C35.1067 41.8373 35.4267 42.3653 35.832 42.824C36.248 43.2827 36.7333 43.6507 37.288 43.928C37.8427 44.1947 38.44 44.328 39.08 44.328C39.7733 44.328 40.4293 44.168 41.048 43.848C41.6773 43.528 42.28 43.0213 42.856 42.328V40.136H40.28V39.48H43.56V45H42.856V43.224ZM47.5568 45V33.64H52.2768C52.7568 33.64 53.1994 33.7413 53.6048 33.944C54.0101 34.1467 54.3568 34.4187 54.6448 34.76C54.9434 35.0907 55.1728 35.4693 55.3328 35.896C55.5034 36.312 55.5888 36.7333 55.5888 37.16C55.5888 37.576 55.5248 37.9813 55.3968 38.376C55.2688 38.76 55.0874 39.1067 54.8528 39.416C54.6181 39.7253 54.3354 39.9813 54.0048 40.184C53.6741 40.3867 53.3114 40.52 52.9168 40.584L55.7488 45H54.8048L52.0528 40.712H48.3728V45H47.5568ZM48.3728 39.96H52.3568C52.7194 39.96 53.0501 39.88 53.3488 39.72C53.6474 39.56 53.9034 39.352 54.1168 39.096C54.3301 38.8293 54.4901 38.5307 54.5968 38.2C54.7141 37.8587 54.7728 37.512 54.7728 37.16C54.7728 36.7973 54.7034 36.4507 54.5648 36.12C54.4368 35.7787 54.2554 35.48 54.0208 35.224C53.7968 34.968 53.5301 34.7653 53.2208 34.616C52.9221 34.456 52.5968 34.376 52.2448 34.376H48.3728V39.96ZM64.0754 45.08C63.286 45.08 62.566 44.9147 61.9154 44.584C61.2647 44.2533 60.7047 43.8213 60.2354 43.288C59.766 42.7547 59.4034 42.1413 59.1474 41.448C58.8914 40.7547 58.7634 40.0453 58.7634 39.32C58.7634 38.5627 58.8967 37.8373 59.1634 37.144C59.4407 36.4507 59.814 35.8373 60.2834 35.304C60.7634 34.7707 61.3287 34.3493 61.9794 34.04C62.63 33.72 63.334 33.56 64.0914 33.56C64.8807 33.56 65.6007 33.7307 66.2514 34.072C66.9127 34.4027 67.4727 34.84 67.9314 35.384C68.4007 35.928 68.7634 36.5467 69.0194 37.24C69.2754 37.9227 69.4034 38.616 69.4034 39.32C69.4034 40.088 69.2647 40.8187 68.9874 41.512C68.7207 42.2053 68.3474 42.8187 67.8674 43.352C67.398 43.8747 66.838 44.296 66.1874 44.616C65.5367 44.9253 64.8327 45.08 64.0754 45.08ZM59.5794 39.32C59.5794 39.9707 59.686 40.6 59.8994 41.208C60.1234 41.8053 60.4327 42.3387 60.8274 42.808C61.2327 43.2667 61.7127 43.6347 62.2674 43.912C62.822 44.1893 63.43 44.328 64.0914 44.328C64.774 44.328 65.3874 44.184 65.9314 43.896C66.486 43.608 66.9554 43.2293 67.3394 42.76C67.734 42.28 68.038 41.7413 68.2514 41.144C68.4647 40.5467 68.5714 39.9387 68.5714 39.32C68.5714 38.6693 68.4594 38.0453 68.2354 37.448C68.0114 36.84 67.6967 36.3067 67.2914 35.848C66.8967 35.3787 66.4274 35.0053 65.8834 34.728C65.3394 34.4507 64.742 34.312 64.0914 34.312C63.4087 34.312 62.79 34.456 62.2354 34.744C61.6807 35.032 61.206 35.416 60.8114 35.896C60.4167 36.3653 60.1127 36.8987 59.8994 37.496C59.686 38.0933 59.5794 38.7013 59.5794 39.32ZM77.7542 44.328C78.5222 44.328 79.1569 44.184 79.6582 43.896C80.1702 43.608 80.5702 43.2293 80.8582 42.76C81.1569 42.2907 81.3649 41.7573 81.4822 41.16C81.6102 40.5627 81.6742 39.96 81.6742 39.352V33.64H82.4902V39.352C82.4902 40.1093 82.4049 40.8347 82.2343 41.528C82.0742 42.2213 81.8076 42.8347 81.4342 43.368C81.0609 43.8907 80.5756 44.3067 79.9782 44.616C79.3809 44.9253 78.6449 45.08 77.7702 45.08C76.8636 45.08 76.1062 44.92 75.4982 44.6C74.8902 44.2693 74.3996 43.8373 74.0262 43.304C73.6636 42.76 73.4022 42.1467 73.2422 41.464C73.0929 40.7813 73.0182 40.0773 73.0182 39.352V33.64H73.8342V39.352C73.8342 39.9813 73.8929 40.5947 74.0102 41.192C74.1382 41.7893 74.3516 42.3227 74.6502 42.792C74.9596 43.2507 75.3649 43.624 75.8662 43.912C76.3676 44.1893 76.9969 44.328 77.7542 44.328ZM86.888 45V33.64H91.56C92.04 33.64 92.4827 33.7413 92.888 33.944C93.2933 34.1467 93.64 34.4187 93.928 34.76C94.2267 35.0907 94.456 35.4693 94.616 35.896C94.7867 36.312 94.872 36.7333 94.872 37.16C94.872 37.6187 94.792 38.0613 94.632 38.488C94.4827 38.9147 94.264 39.2933 93.976 39.624C93.6987 39.9547 93.3627 40.2213 92.968 40.424C92.5733 40.616 92.136 40.712 91.656 40.712H87.704V45H86.888ZM87.704 39.96H91.624C91.9973 39.96 92.3333 39.8853 92.632 39.736C92.9307 39.576 93.1813 39.368 93.384 39.112C93.5973 38.8453 93.7573 38.5467 93.864 38.216C93.9813 37.8747 94.04 37.5227 94.04 37.16C94.04 36.7867 93.9707 36.4347 93.832 36.104C93.704 35.7627 93.5227 35.464 93.288 35.208C93.064 34.952 92.7973 34.7493 92.488 34.6C92.1893 34.4507 91.8693 34.376 91.528 34.376H87.704V39.96Z" fill="#212020"/>
</svg>
